<svg width="128" height="128" viewBox="0 0 64 64" id="Layer_1" style="enable-background:new 0 0 64 64" version="1.1" xml:space="preserve" xmlns="http://www.w3.org/2000/svg"><style>.st5{fill:#fff}.st23{fill:none;stroke:#fff;stroke-width:2;stroke-linecap:round;stroke-miterlimit:10}</style><linearGradient gradientUnits="userSpaceOnUse" id="SVGID_1_" x1="11.992" x2="52.248" y1="11.978" y2="52.235"><stop offset="0" style="stop-color:#a38cf3"/><stop offset="1" style="stop-color:#6b1ad6"/></linearGradient><path d="M57.2 60.5c-16.5 2-33.3 2-50.4 0-1.7-.2-3.1-1.6-3.3-3.3-2-16.8-2-33.6 0-50.4.2-1.7 1.6-3.1 3.3-3.3 16.8-2 33.7-2 50.5 0 1.7.2 3 1.5 3.3 3.2 2 16.5 2 33.3 0 50.5-.3 1.7-1.7 3.1-3.4 3.3z" style="fill:url(#SVGID_1_)"/><path class="st5" d="M32.5 37.9c-4.3-.6-8.6-.6-12.9 0-2.4.4-4.4 2.1-5 4.5l-1.5 6.1c-.3 1.3.6 2.5 1.9 2.5h22c1.3 0 2.3-1.2 1.9-2.5l-1.5-6.1c-.5-2.3-2.5-4.1-4.9-4.5z"/><path d="M32.3 26.3c0 3.5-2.8 8.1-6.3 8.1s-6.3-4.6-6.3-8.1S22.5 20 26 20s6.3 2.8 6.3 6.3z" style="opacity:.6;fill:#fff"/><g style="opacity:.2"><path class="st23" d="m34.6 21.7 9.2-5.6"/><circle class="st23" cx="49.3" cy="12.8" r="3.2"/><path class="st23" d="m34.9 31.9 9.4 5.1"/><circle class="st23" cx="49.9" cy="40.2" r="3.2"/><circle class="st5" cx="45.6" cy="27" r="1.5"/><circle class="st5" cx="33.6" cy="8" r="1.5"/><path class="st23" d="M41.6 27h-6"/><circle class="st5" cx="23" cy="8.8" r="1.5"/><path class="st23" d="m23.6 12.8.8 4.7M38.6 19.3l-3-8.1"/></g></svg>